<?xml version="1.0" encoding="utf-8"?>
<!-- Generator: Adobe Illustrator 24.0.1, SVG Export Plug-In . SVG Version: 6.00 Build 0)  -->
<svg version="1.1" id="图层_1" xmlns="http://www.w3.org/2000/svg" xmlns:xlink="http://www.w3.org/1999/xlink" x="0px" y="0px"
	 viewBox="0 0 86 86" style="enable-background:new 0 0 86 86;" xml:space="preserve">
<style type="text/css">
	.st0{fill:#FEFEFE;}
	.st1{fill:#386AC3;}
</style>
<title>top</title>
<path class="st0" d="M18,12.1C33.3-1.2,52.7-1.2,68,12.1c5,3.9,7.2,9.6,10,15l2,10c0.4,6.7-1.7,12.8-4,18.9
	c-4.8,9.8-13.5,14.8-23,19c-6.6,1.4-13.3,1.4-19.9,0c-9.2-4-17.5-9.2-23-18c-1.9-6.5-4.5-12.9-4-19.9l2-10
	C10.9,21.7,13,15.9,18,12.1z M42,30.2c0,6.3,0,11.4,0,16.5c0,1.7-0.6,4.2,2.2,4c2.2-0.1,1.8-2.4,1.8-4c0-5,0-10.1,0-16.2
	c3.1,3.3,5.4,5.7,7.6,8.1c0.9,1,2,2,3.4,0.7s0.4-2.4-0.5-3.4c-3.1-3.4-6.2-6.9-9.5-10.2c-1.8-1.8-3.9-2.6-6.1-0.4
	c-3.3,3.5-6.6,7-9.8,10.6c-1,1-1.7,2.2-0.3,3.4s2.4,0.1,3.4-0.9C36.5,36.1,38.8,33.6,42,30.2L42,30.2z M44.1,53.1
	c-1-0.1-1.9,0.7-2,1.7c0,0,0,0.1,0,0.1c-0.1,1,0.7,1.9,1.8,2c1,0.1,1.9-0.7,2-1.8C46,53.9,45.2,53.3,44.1,53.1L44.1,53.1z"/>
<path class="st1" d="M42,30.2c-3.2,3.4-5.5,5.9-7.8,8.3c-0.9,1-1.9,2.1-3.4,0.9S30.2,37,31.1,36c3.2-3.5,6.5-7.1,9.8-10.6
	c2.1-2.2,4.3-1.4,6.1,0.4c3.3,3.3,6.4,6.8,9.5,10.2c0.9,1,1.9,2.1,0.5,3.4s-2.4,0.2-3.4-0.7c-2.3-2.4-4.5-4.8-7.6-8.1
	c0,6.1,0,11.1,0,16.2c0,1.6,0.5,3.9-1.8,4c-2.8,0.2-2.2-2.4-2.2-4C42,41.6,42,36.5,42,30.2z"/>
<path class="st1" d="M44.1,53.1c1.1,0.2,1.9,0.9,1.8,2c-0.1,1-1,1.8-2,1.8c-1-0.1-1.8-1-1.8-2C42.2,53.8,43,53,44.1,53.1
	C44.1,53.1,44.1,53.1,44.1,53.1z"/>
</svg>
