<?xml version="1.0" encoding="utf-8"?>
<!-- Generator: Adobe Illustrator 24.0.1, SVG Export Plug-In . SVG Version: 6.00 Build 0)  -->
<svg version="1.1" id="图层_1" xmlns="http://www.w3.org/2000/svg" xmlns:xlink="http://www.w3.org/1999/xlink" x="0px" y="0px"
	 viewBox="0 0 69 263" style="enable-background:new 0 0 69 263;" xml:space="preserve">
<style type="text/css">
	.st0{fill:#444444;}
	.st1{fill:#386AC3;}
	.st2{fill:#F1F1F1;}
	.st3{fill:#707070;}
	.st4{fill:#676767;}
	.st5{fill:#747474;}
	.st6{fill:#7A7A7A;}
	.st7{fill:#757575;}
	.st8{fill:#727272;}
	.st9{fill:#6A6A6A;}
	.st10{fill:#848484;}
	.st11{fill:#FEB700;}
	.st12{fill:#767676;}
	.st13{fill:#7C7C7C;}
	.st14{fill:#787878;}
</style>
<g>
	<g>
		<path class="st0" d="M9,182c3.6-0.3,8.3,1.6,10.4-0.9c1.8-2,0.6-6.5,0.8-10.7c2.8,2.5,1.7,5.1,1.6,7.2c-0.2,3.4,0.7,4.8,4.3,4.5
			c2.2-0.2,4.5-0.6,7.3,0.7c-2.4,1.9-4.8,1.4-6.8,1.1c-4.1-0.5-5.2,1.2-4.8,5c0.2,2,0.6,4.1-0.9,6.9c-1.5-3-1.1-5.5-0.9-7.7
			c0.2-3.2-0.8-4.5-4.1-4.1c-2.3,0.3-4.6,0-7,0C9,183.3,9,182.7,9,182z"/>
		<path class="st1" d="M9,134c2.7-3.9,5.2-7.7,10.6-8.6c2.5-0.4,2.7-4.4,5.3-5.5c0.4,0.9,1.2,1,2,1.1c-3.3,1.4-2.8,6.3-7,7.1
			c-7.5,1.5-9.9,7.3-6,13.9c-0.3,0.4-0.7,0.8-1,1.2c-2.7-1.2-2.1-4.5-3.9-6.2C9,136,9,135,9,134z"/>
		<path class="st1" d="M49,128.9c2.6,1.2,2.3,4.3,4,6.1c0,1.7,0,3.3,0,5c-2-0.5-2.1,2.8-4.2,2.1c0.9-4.1,2.3-8.2-1-12
			C48.2,129.7,48.6,129.3,49,128.9z"/>
		<path class="st2" d="M10,226c-0.3,0-0.7,0-1,0c0-1.7,0-3.3,0-5c0.3,0,0.6,0,0.9,0C9.9,222.6,10,224.3,10,226z"/>
		<path class="st3" d="M47.3,231c1.4,5.2,1,9.2,0.6,13c-0.2,2.2-2,3.3-4.3,3.3c-8.6,0-17.3,0-25.9,0c-2.5,0-4.3-1.2-4.5-3.7
			c-0.3-3.7-0.1-7.5-0.1-12.4c3.3,3.4,2.1,6.5,2,9.1c-0.1,3.8,1.2,5,4.9,4.8c7-0.2,14-0.3,20.9,0c4.1,0.2,5.2-1.5,5-5.2
			C45.9,237.5,45.3,234.8,47.3,231z"/>
		<path class="st4" d="M16.1,213c0.6-2.3,2.5-1.8,4-1.8c7.3,0,14.5,0,21.8,0c2.1,0,4.1-0.1,4.4,2.7c-0.5,0-1,0.1-1.5,0.1
			c-9.3-0.7-18.6-0.9-27.9,0.1C16.7,213.8,16.4,213.4,16.1,213z"/>
		<path class="st1" d="M13.9,142c1.6,1,2.4,2.2,2.5,4.3c0.2,7.3,5.6,11,12.2,8.1c2.7-1.2,3.9,0.2,5.5,1.4c-0.4,0.3-0.7,0.7-1.1,1
			c-1.4,0-2.4-1-4.2-0.3c-8.2,3-14.4-1.3-14.9-10.2c-0.1-1.2-0.4-2.2-1-3.2C13.2,142.8,13.6,142.4,13.9,142z"/>
		<path class="st5" d="M34,228.1c-1.7-0.5-3-2.6-5.3-0.3c-3.1,3-5.9,0.2-8.5-1.7c-0.5-0.5-0.9-1-1.4-1.4c1.9-3.1,1.9-3.1,3.5-0.3
			c1.6,2.8,4.6,2.9,6.3,0.2c0.7-1.1,0.4-2.7,2.1-3.4c1.8,1.6,2.3,4.3,4.6,5.6C34.9,227.2,34.4,227.6,34,228.1z"/>
		<path class="st6" d="M18.8,224.7c0.5,0.5,0.9,1,1.4,1.4c-0.8,0.6-1.6,1.2-2.4,1.9c-1.6,0-3.3,0-4.9,0.1c-1-0.7-1.9-1.4-2.9-2.1
			c-0.1-1.7-0.1-3.3-0.2-5c1.9-2.8,2.9-6.3,6.3-8c0.3,0.4,0.6,0.8,0.9,1.1c-1.1,2-3,3.4-3.8,5.6c-0.8,2-2.2,4-0.1,5.9
			C15.2,227.5,17.1,225.8,18.8,224.7z"/>
		<path class="st7" d="M50.2,219.6c1.6,2.3,1.9,4.8,0,6.8c-1.5,1.7-3.5,3.8-6.3,1.8c0-0.8,0.1-1.6,0.2-2.5c3.8,0.6,5.6-0.8,4.9-4.8
			C49.3,220.6,49.8,220.1,50.2,219.6z"/>
		<path class="st7" d="M44,225.8c0,0.8-0.1,1.6-0.2,2.5c-1.5-0.7-2.6-3.5-4.8-1.1c-0.4-0.4-0.8-0.8-1.1-1.2c0.3-0.6,0.6-1.2,0.9-1.7
			c0.6-1,0.6-2.9,2.3-2.7c1.2,0.1,1.4,1.7,1.9,2.6C43.4,224.7,43.7,225.3,44,225.8z"/>
		<path class="st1" d="M33,156.9c0.4-0.3,0.7-0.7,1.1-1c3.1,0.2,6-0.3,8.7-2c0.4,0.3,0.8,0.7,1.1,1C40.7,157.6,37.2,159.3,33,156.9z
			"/>
		<path class="st8" d="M50.2,219.6c-0.4,0.5-0.9,0.9-1.3,1.4c-1.3-2.3-2.7-4.7-4-7c0.5,0,1-0.1,1.5-0.1
			C48.4,215.3,49.7,217.2,50.2,219.6z"/>
		<path class="st1" d="M44,154.9c-0.4-0.3-0.8-0.7-1.1-1c1-1.7,2-3.4,3.1-5c0.3,0.7,0.7,1.4,1,2.1C46.7,152.8,46,154.4,44,154.9z"/>
		<path class="st9" d="M37.9,226c0.4,0.4,0.8,0.8,1.1,1.2c-1.5,1.6-3.1,2.2-5.1,0.9c0.5-0.4,0.9-0.8,1.4-1.3
			C36.2,226.5,37.1,226.2,37.9,226z"/>
		<path class="st1" d="M46.9,150.9c-0.3-0.7-0.7-1.4-1-2.1c-0.1-0.2-0.1-0.5,0-0.7c0.1-1.6,0.1-3.2,0.2-4.8c0.6-0.1,1.3-0.2,1.9-0.3
			c0,0.3-0.1,0.7-0.2,1c-1.8,1.8-0.7,4.1-0.8,6.1C47.1,150.4,47,150.7,46.9,150.9z"/>
		<path class="st1" d="M47.1,150.1c0.1-2.1-1.1-4.3,0.8-6.1C47.6,146,48.6,148.2,47.1,150.1z"/>
		<path class="st10" d="M12.9,228c1.6,0,3.3,0,4.9-0.1C16.2,229.6,14.5,228.9,12.9,228z"/>
		<path class="st11" d="M16.1,100c0.1-0.6,0.2-1.6,0.5-2.6c1.2-4.2,0.4-7.7-3.2-10.6c-1.9-1.5-4-3.5-3.1-6.3
			c0.9-3.1,3.7-3.5,6.4-3.7c4-0.3,6.8-1.9,8.1-6c0.9-2.6,2-5.8,5.4-5.7c3.2,0.1,4.3,3,5.1,5.5c1.4,4.3,4.3,5.9,8.5,6.2
			c2.5,0.2,5.2,0.5,6.1,3.4c0.9,2.9-1,4.8-2.9,6.4c-3.7,3-4.7,6.4-3.3,11c0.7,2.3,1.1,5.2-1.4,6.9c-2.4,1.6-5,0.5-6.9-1
			c-4-3.1-7.4-2-11.3,0.3C19.4,106.7,16.1,105,16.1,100z"/>
		<path class="st12" d="M32,45.9c-2.2,0-4.2,0.8-6.1,1.6c-6.6,2.9-8.3,1.6-7.8-5.7c0.2-2.6,0.7-5.2,0-7.8L18,34
			c2.6-0.1,3,1.4,2.8,3.5c-0.1,1.5-0.5,2.9-0.6,4.4c-0.5,5.3,0.3,6,4.8,3.5c2.6-1.4,5.2-1.8,8-1.4C32.7,44.7,32.4,45.3,32,45.9z"/>
		<path class="st12" d="M32,45.9c0.3-0.6,0.6-1.2,1-1.8c8.8,3.4,8.8,3.4,8.2-6.1c0-0.3-0.1-0.6-0.1-1c0-1.9,0.7-3.1,2.9-3L44,34
			c-0.9,3.3,0,6.5,0.1,9.8c0,4.9-1.9,6.2-6.5,4.4C35.7,47.4,33.9,46.6,32,45.9z"/>
		<path class="st5" d="M18,34c-2,0.1-2.9-1.5-3.9-2.7c-3.4-3.8-2.7-5.9,2.1-7.5c3.1-1,6.7-0.8,8.7-4.1c0.1,0.5,0.2,1.1,0.3,1.6
			c-0.3,4.2-4,3.2-6.3,3.8c-5.4,1.5-5.6,1.7-2.1,5.9C17.5,31.9,18.2,32.7,18,34L18,34z"/>
		<path class="st5" d="M37.1,20.7c2,1.2,4.1,2,6.4,2.5c2.6,0.6,6.4,0.6,6.3,4.3c-0.1,3.2-2.5,5.6-5.8,6.4L44,34
			c-0.4-1.3,0.5-2.1,1.2-3c3.5-4.2,3.3-4.4-2.1-5.9c-2.2-0.6-5-0.2-6.3-2.9C36.9,21.8,37,21.2,37.1,20.7z"/>
		<path class="st1" d="M47.8,130.1c-1.6-0.7-3-2.1-4.9-1.9c-3,0.3-4-1.5-4.2-4c0.5-0.1,1-0.1,1.5-0.2c2,3.5,7,1.5,8.9,5
			C48.6,129.3,48.2,129.7,47.8,130.1z"/>
		<path class="st1" d="M40.2,123.9c-0.5,0.1-1,0.1-1.5,0.2c-2.5-3-5.7-4.5-9.6-4.2c0.9-1.6,3-0.4,4-1.9
			C36.5,118.7,39.3,120.1,40.2,123.9z"/>
		<path class="st13" d="M37.1,20.7c-0.1,0.6-0.2,1.1-0.3,1.6c-2.4-1.9-3-5.1-5.1-7.2c0.4-0.4,0.9-0.8,1.3-1.2
			C35.4,15.5,36.3,18.1,37.1,20.7z"/>
		<path class="st13" d="M25.2,21.3c-0.1-0.5-0.2-1.1-0.3-1.6c0.8-2.3,2.1-4.3,4.1-5.7c0.4,0.4,0.9,0.8,1.3,1.2
			C28.6,17.2,27.5,19.8,25.2,21.3z"/>
		<path class="st1" d="M33,118.1c-0.9,1.5-3.1,0.3-4,1.9c-0.7,0.3-1.4,0.7-2,1c-0.9-0.1-1.6-0.2-2-1.1C27.3,118,30,117.6,33,118.1z"
			/>
		<path class="st14" d="M30.3,15.1c-0.4-0.4-0.9-0.8-1.3-1.2c1.4-1.3,2.7-1.3,4,0c-0.4,0.4-0.9,0.8-1.3,1.2
			C31.2,15.1,30.8,15.1,30.3,15.1z"/>
		<path class="st1" d="M38.9,134.9c1.9,0.1,2.9,1.2,2.9,2.9c0,1.8-0.7,3.3-2.9,3.2c-1.9-0.1-2.5-1.5-2.5-3.1
			C36.4,136.3,37.1,135.1,38.9,134.9z"/>
		<path class="st1" d="M30,138c0,1.7-0.8,2.9-2.6,3c-1.9,0-2.6-1.3-2.6-3c0-1.7,0.7-3,2.5-3C29.2,135,30,136.2,30,138z"/>
		<path class="st1" d="M46.1,143.3c-0.1,1.6-0.1,3.2-0.2,4.8C45.2,146.5,44.2,144.8,46.1,143.3z"/>
	</g>
</g>
</svg>
