<svg t="1605691381123" class="icon" viewBox="0 0 1024 1024" version="1.1" xmlns="http://www.w3.org/2000/svg" p-id="5061" width="128" height="128"><path d="M733.7216 558.91968c-96.512-0.0256-174.7712 78.18752-174.80192 174.70464-0.0256 96.51712 78.18752 174.7712 174.70464 174.7968 96.51712 0 174.7968-78.22848 174.7968-174.7968-0.0256-96.47616-78.2336-174.67392-174.69952-174.70464z m-0.09728 299.53024c-68.94592 0-124.8256-55.8848-124.8256-124.8256 0-68.94592 55.87968-124.8256 124.8256-124.8256 68.9408 0 124.8256 55.87968 124.8256 124.8256 0 68.9408-55.8848 124.8256-124.8256 124.8256z" fill="#000000" p-id="5062"></path><path d="M840.73472 840.73472a24.9856 24.9856 0 0 1 34.21696 0l51.4304 51.46624a24.9856 24.9856 0 0 1-32.96256 35.44064l-51.42016-51.42016a24.98048 24.98048 0 0 1 0-34.22208l-1.26464-1.26464zM357.95456 168.67328c35.2256 0.16896 63.95392 28.93824 64.05632 63.99488v125.20448c-0.10752 35.29216-28.9024 64.08192-64 64.18944H232.832c-35.28704-0.11776-64.06656-28.92288-64.15872-64.04608v-125.184c0.11776-35.27168 28.90752-64.0512 64-64.1536h125.28128m0.10752-61.44512h-125.3888c-69.17632 0.2048-125.2096 56.2176-125.44 125.3888v125.3888c0.1792 69.19168 56.19712 125.25056 125.3888 125.48608h125.3888c69.19168-0.2048 125.23008-56.2432 125.44-125.44v-125.3888c-0.2048-69.1712-56.2176-125.20448-125.3888-125.43488zM796.89216 168.67328c35.2768 0.12288 64.0512 28.90752 64.1536 64v125.15328c-0.10752 35.28704-28.89728 64.0768-63.99488 64.18432h-125.2352c-35.27168-0.11776-64.0512-28.90752-64.1536-64v-125.184c0.11264-35.25632 28.89728-64.03584 63.9488-64.1536h125.28128m0.15872-61.44h-0.0512 0.0512z m-0.0512 0h-125.3888c-69.15584 0.2304-125.1584 56.23296-125.3888 125.3888v125.3888c0.20992 69.17632 56.21248 125.2096 125.3888 125.44h125.44c69.19168-0.2048 125.23008-56.2432 125.43488-125.44v-125.3376c-0.2048-69.21216-56.27392-125.25568-125.48608-125.44zM357.92896 607.66208c35.2512 0.13312 64.01536 28.90752 64.13312 63.9488v125.25568c-0.10752 35.28704-28.9024 64.0768-64 64.1792H232.85248c-35.28704-0.10752-64.0768-28.89728-64.18432-63.99488v-125.2352c0.11776-35.27168 28.90752-64.0512 64-64.1536h125.2608m0.13312-61.44h-125.3888c-69.17632 0.20992-125.2096 56.21248-125.44 125.3888v125.44c0.2048 69.19168 56.2432 125.23008 125.44 125.43488h125.3888c69.19168-0.2048 125.23008-56.2432 125.44-125.43488v-125.44c-0.23552-69.17632-56.2688-125.17888-125.44-125.3888z" fill="#000000" p-id="5063"></path></svg>