<!-- <?xml version="1.0" standalone="no"?>
<!DOCTYPE svg PUBLIC "-//W3C//DTD SVG 20010904//EN"
 "http://www.w3.org/TR/2001/REC-SVG-20010904/DTD/svg10.dtd">
<svg version="1.0" xmlns="http://www.w3.org/2000/svg"
 width="44.000000pt" height="44.000000pt" viewBox="0 0 44.000000 44.000000"
 preserveAspectRatio="xMidYMid meet">
<metadata>
Created by potrace 1.15, written by Peter Selinger 2001-2017
</metadata>
<g transform="translate(0.000000,44.000000) scale(0.100000,-0.100000)"
fill="#000000" stroke="none">
<path d="M110 339 c-97 -81 -118 -109 -81 -109 19 0 20 -7 23 -102 l3 -103 60
0 60 0 5 45 c7 55 15 70 40 70 25 0 33 -15 40 -70 l5 -45 60 0 60 0 3 102 c3
96 4 103 23 103 13 0 19 6 17 15 -4 20 -189 175 -208 174 -8 0 -58 -36 -110
-80z m186 -26 l65 -56 -3 -101 -3 -101 -30 0 c-28 0 -30 2 -33 45 -4 57 -25
80 -72 80 -47 0 -68 -23 -72 -80 -3 -43 -5 -45 -33 -45 l-30 0 -3 100 -3 100
63 57 c35 32 69 57 76 58 8 0 43 -25 78 -57z"/>
</g>
</svg> -->

<svg t="1605691069572" class="icon" viewBox="0 0 1111 1024" version="1.1" xmlns="http://www.w3.org/2000/svg" p-id="13007" data-spm-anchor-id="a313x.7781069.0.i25" width="128" height="128"><path d="M1093.632 412.672L614.4 23.552c-33.792-30.72-87.04-30.72-120.832 0L17.408 411.648l-1.024 1.024c-15.36 14.336-20.48 35.84-12.288 56.32C11.264 488.448 29.696 501.76 51.2 501.76h103.424v457.728c0 34.816 29.696 63.488 66.56 63.488H890.88c35.84 0 66.56-28.672 66.56-63.488v-56.32c0-14.336-11.264-25.6-25.6-25.6s-25.6 11.264-25.6 25.6v56.32c0 7.168-7.168 12.288-15.36 12.288H220.16c-8.192 0-15.36-6.144-15.36-12.288V450.56H51.2L527.36 63.488l1.024-1.024c14.336-14.336 37.888-14.336 52.224 0L1057.792 450.56h-153.6v279.552c0 14.336 11.264 25.6 25.6 25.6s25.6-11.264 25.6-25.6V500.736h103.424c21.504 0 39.936-12.288 47.104-32.768 8.192-19.456 3.072-40.96-12.288-55.296z" fill="#231815" p-id="13008"></path><path d="M699.392 520.192v265.216c0 14.336 11.264 25.6 25.6 25.6s25.6-11.264 25.6-25.6V520.192c0-14.336-11.264-25.6-25.6-25.6-13.312 0-25.6 12.288-25.6 25.6z" fill="#386AC3" p-id="13009" data-spm-anchor-id="a313x.7781069.0.i26" class="selected"></path><path d="M905.216 816.128c0 14.336 11.264 25.6 25.6 25.6s25.6-11.264 25.6-25.6-11.264-25.6-25.6-25.6-25.6 11.264-25.6 25.6z" fill="#231815" p-id="13010"></path></svg>