<!-- <?xml version="1.0" standalone="no"?>
<!DOCTYPE svg PUBLIC "-//W3C//DTD SVG 20010904//EN"
 "http://www.w3.org/TR/2001/REC-SVG-20010904/DTD/svg10.dtd">
<svg version="1.0" xmlns="http://www.w3.org/2000/svg"
 width="44.000000pt" height="44.000000pt" viewBox="0 0 44.000000 44.000000"
 preserveAspectRatio="xMidYMid meet">
<metadata>
Created by potrace 1.15, written by Peter Selinger 2001-2017
</metadata>
<g transform="translate(0.000000,44.000000) scale(0.100000,-0.100000)"
fill="#386AC3" stroke="none">
<path d="M110 339 c-97 -81 -118 -109 -81 -109 19 0 20 -7 23 -102 l3 -103 60
0 60 0 5 45 c7 55 15 70 40 70 25 0 33 -15 40 -70 l5 -45 60 0 60 0 3 102 c3
96 4 103 23 103 13 0 19 6 17 15 -4 20 -189 175 -208 174 -8 0 -58 -36 -110
-80z m186 -26 l65 -56 -3 -101 -3 -101 -30 0 c-28 0 -30 2 -33 45 -4 57 -25
80 -72 80 -47 0 -68 -23 -72 -80 -3 -43 -5 -45 -33 -45 l-30 0 -3 100 -3 100
63 57 c35 32 69 57 76 58 8 0 43 -25 78 -57z"/>
</g>
</svg> -->

<svg t="1605691260585" class="icon" viewBox="0 0 1024 1024" version="1.1" xmlns="http://www.w3.org/2000/svg" p-id="8189" width="128" height="128"><path d="M921.855362 496.933666v-2.553616c0-1.53217-0.510723-3.064339-1.53217-4.085786l-405.003491-389.171072c-1.021446-1.021446-2.042893-1.53217-3.064339-1.53217l408.578553 392.746135 1.53217 422.36808c0.510723-1.53217 1.021446-3.064339 1.021446-5.107232V503.573067c0-2.042893 0-3.064339-0.510723-4.085785l-1.021446-2.553616z" fill="#386AC3" p-id="8190"></path><path d="M505.105237 100.101746L99.080299 490.294264c-0.510723 0.510723-1.021446 1.021446-1.021446 1.53217l408.578553-392.746135c-1.021446 0-1.53217 0.510723-1.532169 1.021447z m377.424439 414.196508l-370.785038-416.239401h-1.532169c-1.021446 0-2.042893 0-3.064339 1.021446L137.384539 512.255362v412.153616l-32.175561-1.53217c2.553616 1.53217 5.107232 2.042893 8.171571 2.042893h376.402992v-1.021447h-36.261346l36.261346-285.494264v-0.510723c0-25.025436 20.428928-45.454364 45.454364-45.454364h201.735661c25.025436 0 45.965087 20.428928 45.965087 45.454364v287.537157H909.087282c2.042893 0 3.575062 0 5.617955-1.021446H883.551122v-410.110724h-1.021446z" fill="#386AC3" p-id="8191"></path><path d="M956.584539 491.315711c-0.510723-9.703741-4.596509-19.407481-12.257357-26.046883l-405.003491-389.171072c-7.660848-7.660848-17.875312-11.746633-28.600499-11.746634s-20.939651 4.085786-28.600499 11.746634L76.608479 465.268828c-8.682294 8.171571-12.76808 19.407481-12.257357 30.643391-0.510723 2.553616-0.510723 5.107232-0.510723 7.660848v405.514215c0 27.068329 22.982544 49.029426 50.561596 49.029426h409.089277v-320.734164c0-6.128678 5.107232-11.23591 11.23591-11.235911h201.224938c6.128678 0 11.746633 5.107232 11.746633 11.235911v320.734164h159.345636c27.579052 0 50.050873-21.961097 50.050873-49.029426V503.573067c0.510723-4.596509 0-8.171571-0.510723-12.257356z m-32.686285 417.771571c0 1.53217-0.510723 3.575062-1.021446 5.107232v9.193017h-10.214464c-1.53217 1.021446-3.575062 1.021446-5.617955 1.021447H781.406484v-287.026434c0-25.025436-20.428928-45.454364-45.965087-45.454364h-201.224938c-25.025436 0-45.454364 20.428928-45.454364 45.454364v287.026434H114.401995c-3.064339 0-6.128678-0.510723-8.682294-2.042893l-9.193018-0.510723V493.358603l2.042893-2.042892c0.510723-0.510723 0.510723-1.021446 1.53217-1.53217L505.61596 101.123192c0.510723-0.510723 1.021446-1.021446 1.53217-1.021446l0.510723-0.510724-0.510723 0.510724c1.53217-0.510723 2.553616-1.021446 3.575062-1.021447h1.53217l-1.53217-1.532169 1.53217 1.532169c1.021446 0 2.042893 0.510723 3.064339 1.53217l405.003491 389.171072c1.021446 1.021446 1.53217 2.553616 1.53217 4.085786v2.553616l1.021446 2.553616c0.510723 1.021446 0.510723 2.553616 0.510723 4.085785l0.510723 406.024938z" fill="#386AC3" p-id="8192"></path><path d="M513.276808 99.591022l-1.53217-1.532169 1.53217 1.532169 370.274314 415.728679v410.110723h40.857856v-9.193018l-1.53217-423.389526-409.6-393.256858z" fill="#386AC3" p-id="8193"></path><path d="M138.405985 512.255362L507.14813 99.591022l0.510723-0.510723-0.510723 0.510723-408.067831 392.235412-2.042893 2.042893V921.855362l9.193018 0.510723 32.686284 1.532169-0.510723-411.642892z m351.377556 411.132169v-284.983541l-36.261346 284.983541h36.261346z" fill="#386AC3" p-id="8194"></path><path d="M864.143641 86.822943h-117.977057c-7.660848 0-14.300249-6.128678-14.30025-13.789527 0-7.660848 6.639401-13.789526 14.30025-13.789526h117.977057c7.660848 0 14.300249 6.128678 14.300249 13.789526 0 7.150125-6.639401 13.789526-14.300249 13.789527z" fill="#386AC3" p-id="8195"></path><path d="M819.2 16.343142V130.234414c0 7.660848-6.639401 13.789526-14.300249 13.789526-7.660848 0-14.300249-6.128678-14.30025-13.789526V16.343142c0-7.660848 6.639401-13.789526 14.30025-13.789526 8.682294 0 14.300249 6.128678 14.300249 13.789526z" fill="#386AC3" p-id="8196"></path><path d="M150.663342 300.305237H58.222444c-6.128678 0-11.23591-5.107232-11.23591-11.23591 0-6.128678 5.107232-11.23591 11.23591-11.235911h92.440898c6.128678 0 11.23591 5.107232 11.23591 11.235911 0 6.128678-5.107232 11.23591-11.23591 11.23591z" fill="#386AC3" p-id="8197"></path><path d="M115.423441 242.593516v92.440898c0 6.128678-5.107232 11.23591-11.23591 11.23591-6.128678 0-11.23591-5.107232-11.23591-11.23591V242.593516c0-6.128678 5.107232-11.23591 11.23591-11.23591 6.128678 0.510723 11.23591 5.107232 11.23591 11.23591z" fill="#386AC3" p-id="8198"></path><path d="M935.644888 343.205985c-46.986534 0-85.801496-37.282793-85.801496-83.24788S888.147631 176.199501 935.644888 176.199501c46.986534 0 85.801496 37.282793 85.801496 83.247881s-38.304239 83.758603-85.801496 83.758603z" fill="#386AC3" p-id="8199"></path><path d="M923.898254 343.205985c-45.965087 0-82.737157-36.77207-82.737157-83.24788S877.933167 176.199501 923.898254 176.199501s82.737157 37.282793 82.737157 83.247881-37.793516 83.758603-82.737157 83.758603z" fill="#386AC3" p-id="8200"></path><path d="M875.379551 260.979551l46.986534-46.986534 48.518703 48.518704-46.986534 46.986533-48.518703-48.518703z" fill="#386AC3" p-id="8201"></path><path d="M931.048379 222.675312l-9.193017-9.193018-46.475811 46.475811 48.518703 48.518703 9.193018-9.193017-39.325686-39.325686 37.282793-37.282793z" fill="#386AC3" p-id="8202"></path><path d="M195.096259 171.602993c-49.029426 0-88.355112-38.304239-88.355112-85.801497S146.066833 0 195.096259 0 283.451372 38.304239 283.451372 86.312219s-39.325686 85.290773-88.355113 85.290774z" fill="#386AC3" p-id="8203"></path><path d="M182.32818 171.602993c-46.986534 0-85.290773-38.304239-85.290774-85.801497S135.341646 0 182.32818 0 267.618953 38.304239 267.618953 85.801496s-38.304239 85.801496-85.290773 85.801497z" fill="#386AC3" p-id="8204"></path><path d="M132.78803 86.312219l48.518703-48.518703 49.54015 49.54015-48.518703 48.518703-49.54015-49.54015z" fill="#386AC3" p-id="8205"></path><path d="M189.989027 47.497257L180.79601 38.304239l-48.518703 48.518704 49.540149 49.540149 9.193018-9.193017-40.857856-40.857856c1.021446 0 39.836409-38.814963 39.836409-38.814962z" fill="#386AC3" p-id="8206"></path></svg>