<!-- <?xml version="1.0" standalone="no"?>
<!DOCTYPE svg PUBLIC "-//W3C//DTD SVG 20010904//EN"
 "http://www.w3.org/TR/2001/REC-SVG-20010904/DTD/svg10.dtd">
<svg version="1.0" xmlns="http://www.w3.org/2000/svg"
 width="44.000000pt" height="44.000000pt" viewBox="0 0 44.000000 44.000000"
 preserveAspectRatio="xMidYMid meet">
<metadata>
Created by potrace 1.15, written by Peter Selinger 2001-2017
</metadata>
<g transform="translate(0.000000,44.000000) scale(0.100000,-0.100000)"
fill="#386AC3" stroke="none">
<path d="M130 412 c-19 -10 -48 -36 -65 -56 -28 -35 -30 -44 -30 -116 0 -73 2
-80 33 -119 27 -33 31 -44 22 -60 -5 -11 -10 -27 -10 -35 0 -24 29 -19 39 6 7
20 15 21 101 22 87 1 93 0 101 -21 10 -26 39 -31 39 -7 0 8 -5 24 -10 35 -9
16 -5 27 22 60 28 35 33 49 36 107 4 79 -14 119 -72 166 -31 26 -47 31 -104
34 -52 2 -75 -1 -102 -16z m168 -42 c130 -79 74 -280 -78 -280 -152 0 -208
201 -78 280 43 26 113 26 156 0z"/>
</g>
</svg> -->

<svg t="1605691676275" class="icon" viewBox="0 0 1024 1024" version="1.1" xmlns="http://www.w3.org/2000/svg" p-id="11816" width="128" height="128"><path d="M387.71 513.83c-3.42-10.49-14.25-12.36-21.8-17.72-97.75-69.49-136.15-194.24-93.95-306.45 41.1-109.3 152.16-178.4 267.88-166.68 120.5 12.2 215.02 100.44 234.08 218.5 23.52 145.74-81.57 277.81-228.36 301.21-103.71 16.53-210.48 29.09-299.09 98.22C150.99 715.4 88.9 809.46 61.91 927.02c-6.86 29.86 1.2 39.79 31.86 39.8 278.13 0.14 556.27 0.15 834.4-0.02 30.46-0.02 36.92-9.12 30.13-40.35-32.64-150-120.75-256.69-255.47-327.01-20.4-10.65-22.66-43.17-3.78-56.52 10.28-7.27 18.43 2.47 26.39 6.21 134.15 63.14 223.22 166.79 271.98 305.81 8.02 22.87 13.88 46.7 18.52 70.51 9.52 48.86-21.1 88.87-70.98 94.31-7.73 0.84-15.6 0.46-23.4 0.46-274.23 0.02-548.46 0.04-822.69 0-73.59-0.01-105.82-40.06-87.51-111.22 51.82-201.38 178.39-332.11 376.35-395.17z" fill="#386AC3" p-id="11817"></path><path d="M497.94 599.13c-1.42 16.74-14.29 17.26-25.44 20.04-69.75 17.37-133.5 46.86-189.25 92.84-35.67 29.42-64.98 64.09-87.68 104.33-6.44 11.42-13.24 24.47-28.66 15.25-13.58-8.12-6.83-20.31-0.84-30.65 68.62-118.53 174.07-184.8 305.12-214.5 12.16-2.75 23.64-2.2 26.75 12.69z" fill="#386AC3" p-id="11818"></path><path d="M120.2 910.45c3.86-24.19 10.9-43.23 21.88-60.84 5.92-9.5 14.65-14.69 24.6-9.64 12.13 6.15 10.68 17.07 4.69 27.61-8.25 14.52-14.36 29.8-16.67 46.45-1.56 11.2-7.92 19.12-19.26 17.31-12.8-2.05-16.07-12.65-15.24-20.89z" fill="#386AC3" p-id="11819"></path><path d="M516.69 72.26c115.1 0.38 210.58 96.87 209.28 211.52-1.3 115.44-97.66 210.26-212.21 208.83-114.18-1.42-207.44-95.98-207.39-210.29 0.05-115.68 94.92-210.44 210.32-210.06z" fill="#386AC3" p-id="11820"></path></svg>